<svg width="256" height="256" viewBox="0 0 256 256" fill="none" xmlns="http://www.w3.org/2000/svg">
  <defs>
    <linearGradient id="bg" x1="0" y1="0" x2="1" y2="1">
      <stop offset="0" stop-color="#6a5cff"/>
      <stop offset="1" stop-color="#3bd6c6"/>
    </linearGradient>
  </defs>
  <rect x="0" y="0" width="256" height="256" rx="64" fill="url(#bg)"/>
  <circle cx="128" cy="118" r="58" fill="#f3d2bf"/>
  <path d="M64 108c14-36 46-58 86-54 26 2 46 16 56 36-16-6-30-8-48-6-26 2-44 10-66 24-8 6-16 10-28 12z" fill="#2ecc71"/>
  <circle cx="104" cy="128" r="18" stroke="#1e1e1e" stroke-width="6" fill="#c7f0ff"/>
  <circle cx="152" cy="128" r="18" stroke="#1e1e1e" stroke-width="6" fill="#c7f0ff"/>
  <rect x="120" y="124" width="16" height="8" rx="4" fill="#1e1e1e"/>
  <path d="M52 208c22-28 50-40 76-40s54 12 76 40" stroke="#ffffff" stroke-width="18" stroke-linecap="round"/>
</svg>
