<svg width="256" height="256" viewBox="0 0 256 256" fill="none" xmlns="http://www.w3.org/2000/svg">
  <defs>
    <linearGradient id="bg" x1="0" y1="0" x2="1" y2="1">
      <stop offset="0" stop-color="#f5a623"/>
      <stop offset="1" stop-color="#f2792e"/>
    </linearGradient>
  </defs>
  <rect x="0" y="0" width="256" height="256" rx="64" fill="url(#bg)"/>
  <circle cx="128" cy="118" r="58" fill="#f7e2d4"/>
  <path d="M70 98c14-26 38-44 70-44 26 0 46 10 62 28-18 4-40 16-76 18-26 2-40 6-56 12z" fill="#4b3f72"/>
  <rect x="78" y="120" width="100" height="28" rx="14" fill="#1f1f1f"/>
  <circle cx="102" cy="134" r="8" fill="#2c2c2c"/>
  <circle cx="154" cy="134" r="8" fill="#2c2c2c"/>
  <path d="M52 208c24-30 54-42 76-42s52 12 76 42" stroke="#2c2c2c" stroke-width="18" stroke-linecap="round"/>
</svg>
