<svg width="256" height="256" viewBox="0 0 256 256" fill="none" xmlns="http://www.w3.org/2000/svg">
  <defs>
    <linearGradient id="bg" x1="0" y1="0" x2="1" y2="1">
      <stop offset="0" stop-color="#ffb86b"/>
      <stop offset="1" stop-color="#ff6b6b"/>
    </linearGradient>
  </defs>
  <rect x="0" y="0" width="256" height="256" rx="64" fill="url(#bg)"/>
  <circle cx="128" cy="118" r="58" fill="#f8d8c6"/>
  <path d="M72 104c18-30 46-48 78-46 26 2 44 14 56 34-14-4-28-6-44-4-26 2-44 10-64 22-8 6-14 8-26 10z" fill="#8e44ad"/>
  <circle cx="104" cy="128" r="10" fill="#2d3436"/>
  <circle cx="152" cy="128" r="10" fill="#2d3436"/>
  <path d="M92 150c10 8 22 12 36 12s26-4 36-12" stroke="#b35c44" stroke-width="8" stroke-linecap="round"/>
  <path d="M52 208c22-28 50-40 76-40s54 12 76 40" stroke="#ffcf66" stroke-width="18" stroke-linecap="round"/>
</svg>
