<svg width="256" height="256" viewBox="0 0 256 256" fill="none" xmlns="http://www.w3.org/2000/svg">
  <defs>
    <linearGradient id="bg" x1="0" y1="0" x2="1" y2="1">
      <stop offset="0" stop-color="#1f1f3a"/>
      <stop offset="1" stop-color="#4a6fa5"/>
    </linearGradient>
  </defs>
  <rect x="0" y="0" width="256" height="256" rx="64" fill="url(#bg)"/>
  <circle cx="128" cy="118" r="58" fill="#f2d4c2"/>
  <path d="M74 106c16-30 42-48 74-46 28 2 48 14 60 34-16-4-28-6-46-4-26 2-44 10-64 22-10 6-16 8-24 10z" fill="#d35400"/>
  <rect x="84" y="124" width="88" height="26" rx="13" fill="#0f0f0f"/>
  <circle cx="104" cy="136" r="7" fill="#1b1b1b"/>
  <circle cx="152" cy="136" r="7" fill="#1b1b1b"/>
  <path d="M52 208c22-28 50-40 76-40s54 12 76 40" stroke="#d35400" stroke-width="18" stroke-linecap="round"/>
</svg>
