<svg width="256" height="256" viewBox="0 0 256 256" fill="none" xmlns="http://www.w3.org/2000/svg">
  <defs>
    <linearGradient id="bg" x1="0" y1="0" x2="1" y2="1">
      <stop offset="0" stop-color="#0f2a3d"/>
      <stop offset="1" stop-color="#1f6aa5"/>
    </linearGradient>
  </defs>
  <rect x="0" y="0" width="256" height="256" rx="64" fill="url(#bg)"/>
  <circle cx="128" cy="120" r="60" fill="#f2d7c9"/>
  <path d="M62 126c12-34 44-60 84-60 30 0 54 12 70 34-10 2-22 6-36 10-16 5-30 8-54 8-24 0-40 2-64 8z" fill="#f6a11a"/>
  <circle cx="102" cy="126" r="22" stroke="#1e1e1e" stroke-width="6" fill="#2a2a2a"/>
  <circle cx="154" cy="126" r="22" stroke="#1e1e1e" stroke-width="6" fill="#2a2a2a"/>
  <rect x="120" y="122" width="16" height="8" rx="4" fill="#1e1e1e"/>
  <path d="M52 210c24-32 52-44 84-44s60 12 84 44" stroke="#f6a11a" stroke-width="20" stroke-linecap="round"/>
</svg>
