<svg width="256" height="256" viewBox="0 0 256 256" fill="none" xmlns="http://www.w3.org/2000/svg">
  <defs>
    <linearGradient id="bg" x1="0" y1="0" x2="1" y2="1">
      <stop offset="0" stop-color="#7ef2d6"/>
      <stop offset="1" stop-color="#ff9ac2"/>
    </linearGradient>
  </defs>
  <rect x="0" y="0" width="256" height="256" rx="64" fill="url(#bg)"/>
  <circle cx="128" cy="118" r="58" fill="#f9d6c0"/>
  <path d="M70 104c16-32 44-52 82-48 24 2 42 16 52 36-18-6-34-8-52-6-22 2-38 8-60 18-8 4-14 8-22 12z" fill="#34495e"/>
  <circle cx="104" cy="126" r="10" fill="#2d3436"/>
  <circle cx="152" cy="126" r="10" fill="#2d3436"/>
  <path d="M80 148c12 10 30 14 48 14s36-4 48-14" stroke="#c27a5b" stroke-width="10" stroke-linecap="round"/>
  <path d="M52 208c22-30 50-42 76-42s54 12 76 42" stroke="#2c3e50" stroke-width="18" stroke-linecap="round"/>
</svg>
