<svg width="256" height="256" viewBox="0 0 256 256" fill="none" xmlns="http://www.w3.org/2000/svg">
  <defs>
    <linearGradient id="bg" x1="0" y1="0" x2="1" y2="1">
      <stop offset="0" stop-color="#7fe5a1"/>
      <stop offset="1" stop-color="#ffd3a5"/>
    </linearGradient>
  </defs>
  <rect x="0" y="0" width="256" height="256" rx="64" fill="url(#bg)"/>
  <circle cx="128" cy="118" r="58" fill="#f6d7c4"/>
  <path d="M66 112c12-32 40-54 78-54 30 0 52 12 66 32-16 2-30 6-48 10-24 6-42 10-72 12-10 0-18 2-24 0z" fill="#e67e22"/>
  <circle cx="104" cy="128" r="18" stroke="#2c3e50" stroke-width="6" fill="#f9f9f9"/>
  <circle cx="152" cy="128" r="18" stroke="#2c3e50" stroke-width="6" fill="#f9f9f9"/>
  <rect x="120" y="124" width="16" height="8" rx="4" fill="#2c3e50"/>
  <path d="M52 208c22-28 50-40 76-40s54 12 76 40" stroke="#2c3e50" stroke-width="18" stroke-linecap="round"/>
</svg>
